<svg width="91" height="133" viewBox="0 0 91 133" fill="none" xmlns="http://www.w3.org/2000/svg">
<path fill-rule="evenodd" clip-rule="evenodd" d="M11 0.54879L13 5.61979C13.6099 7.16613 14.8339 8.39016 16.3803 9.00003L21.4513 11L16.3803 13C14.8339 13.6098 13.6099 14.8339 13 16.3802L11 21.4512L9.00007 16.3802C8.3902 14.8339 7.16616 13.6098 5.61983 13L0.548828 11L5.61983 9.00003C7.16617 8.39016 8.3902 7.16613 9.00007 5.61979L11 0.54879ZM11 6L10.8606 6.35357C10.8433 6.39739 10.8257 6.44102 10.8076 6.48445C10.5482 7.10965 10.213 7.69384 9.81293 8.22588C9.36115 8.82676 8.8268 9.36111 8.22592 9.81289C7.69388 10.2129 7.10969 10.5482 6.48449 10.8076C6.44106 10.8256 6.39743 10.8433 6.35361 10.8606L6.00004 11L6.35361 11.1394C6.39743 11.1567 6.44106 11.1744 6.48449 11.1924C7.10969 11.4518 7.69388 11.7871 8.22592 12.1871C8.82679 12.6389 9.36115 13.1732 9.81293 13.7741C10.213 14.3062 10.5482 14.8904 10.8076 15.5156C10.8257 15.559 10.8433 15.6026 10.8606 15.6464L11 16L11.1395 15.6464C11.1568 15.6026 11.1744 15.559 11.1924 15.5156C11.4518 14.8904 11.7871 14.3062 12.1872 13.7741C12.6389 13.1732 13.1733 12.6389 13.7742 12.1871C14.3062 11.7871 14.8904 11.4518 15.5156 11.1924C15.559 11.1744 15.6026 11.1567 15.6465 11.1394L16 11L15.6465 10.8606C15.6026 10.8433 15.559 10.8256 15.5156 10.8076C14.8904 10.5482 14.3062 10.2129 13.7742 9.81289C13.1733 9.36111 12.6389 8.82676 12.1872 8.22588C11.7871 7.69384 11.4518 7.10965 11.1924 6.48445C11.1744 6.44102 11.1568 6.39739 11.1395 6.35357L11 6Z" fill="#888888"/>
<path fill-rule="evenodd" clip-rule="evenodd" d="M67 64.5488L68.9482 69.4885C69.0499 69.7462 69.2539 69.9502 69.5116 70.0518L74.4513 72L69.5116 73.9482C69.2539 74.0498 69.0499 74.2538 68.9482 74.5116L67 79.4512L65.0519 74.5116C64.9502 74.2538 64.7462 74.0498 64.4885 73.9482L59.5488 72L64.4885 70.0518C64.7462 69.9502 64.9502 69.7462 65.0519 69.4885L67 64.5488ZM66.7261 70.6103C66.7824 70.5119 66.8333 70.4099 66.8784 70.3048C66.8901 70.2775 66.9015 70.25 66.9124 70.2222L67 70L67.0877 70.2222C67.0986 70.25 67.1099 70.2775 67.1217 70.3048C67.1668 70.4099 67.2177 70.5119 67.2739 70.6103C67.5396 71.0751 67.925 71.4605 68.3897 71.7261C68.4881 71.7824 68.5901 71.8332 68.6953 71.8784C68.7226 71.8901 68.7501 71.9014 68.7778 71.9124L69 72L68.7778 72.0876C68.7501 72.0986 68.7226 72.1099 68.6953 72.1216C68.5901 72.1668 68.4881 72.2176 68.3897 72.2739C67.925 72.5395 67.5396 72.9249 67.2739 73.3897C67.2177 73.4881 67.1668 73.5901 67.1217 73.6952C67.1099 73.7225 67.0986 73.75 67.0877 73.7778L67 74L66.9124 73.7778C66.9015 73.75 66.8901 73.7225 66.8784 73.6952C66.8333 73.5901 66.7824 73.4881 66.7261 73.3897C66.4605 72.9249 66.0751 72.5395 65.6104 72.2739C65.512 72.2176 65.41 72.1668 65.3048 72.1216C65.2775 72.1099 65.25 72.0986 65.2223 72.0876L65 72L65.2223 71.9124C65.25 71.9014 65.2775 71.8901 65.3048 71.8784C65.41 71.8332 65.512 71.7824 65.6104 71.7261C66.0751 71.4605 66.4605 71.0751 66.7261 70.6103Z" fill="#888888"/>
<path fill-rule="evenodd" clip-rule="evenodd" d="M81 19.5488L83.0359 24.7107C83.4424 25.7416 84.2585 26.5576 85.2894 26.9642L90.4513 29L85.2894 31.0358C84.2585 31.4424 83.4424 32.2584 83.0359 33.2893L81 38.4512L78.9642 33.2893C78.5576 32.2584 77.7416 31.4424 76.7107 31.0358L71.5488 29L76.7107 26.9642C77.7416 26.5576 78.5576 25.7416 78.9642 24.7107L81 19.5488ZM81 25L80.8247 25.4445C80.8029 25.4999 80.7802 25.5549 80.7568 25.6095C80.5121 26.1797 80.1827 26.7033 79.7841 27.1649C79.593 27.3861 79.3861 27.593 79.1649 27.784C78.7033 28.1827 78.1798 28.512 77.6096 28.7568C77.555 28.7802 77.4999 28.8028 77.4445 28.8247L77 29L77.4445 29.1753C77.4999 29.1972 77.555 29.2198 77.6096 29.2433C78.1798 29.488 78.7033 29.8173 79.1649 30.216C79.3861 30.407 79.593 30.6139 79.7841 30.8351C80.1827 31.2967 80.5121 31.8203 80.7568 32.3905C80.7802 32.4451 80.8029 32.5001 80.8247 32.5555L81 33L81.1753 32.5555C81.1972 32.5001 81.2199 32.4451 81.2433 32.3905C81.488 31.8203 81.8173 31.2967 82.216 30.8351C82.407 30.6139 82.614 30.407 82.8352 30.216C83.2967 29.8173 83.8203 29.488 84.3905 29.2433C84.4451 29.2198 84.5001 29.1972 84.5556 29.1753L85 29L84.5556 28.8247C84.5001 28.8028 84.4451 28.7802 84.3905 28.7568C83.8203 28.512 83.2967 28.1827 82.8352 27.784C82.614 27.593 82.407 27.3861 82.216 27.1649C81.8173 26.7033 81.488 26.1797 81.2433 25.6095C81.2199 25.5549 81.1972 25.4999 81.1753 25.4445L81 25Z" fill="#888888"/>
<path fill-rule="evenodd" clip-rule="evenodd" d="M8 48C8 50.2091 6.20914 52 4 52C1.79086 52 0 50.2091 0 48C0 45.7909 1.79086 44 4 44C6.20914 44 8 45.7909 8 48ZM4 50C5.10457 50 6 49.1046 6 48C6 46.8954 5.10457 46 4 46C2.89543 46 2 46.8954 2 48C2 49.1046 2.89543 50 4 50Z" fill="#888888"/>
<path d="M15.5893 96.3V100.46L14.0493 100.6L13.7493 98H5.16935L4.88935 100.46L3.32935 100.6V96.3H4.38935C4.94935 95.9933 5.38935 95.5267 5.70935 94.9C6.02935 94.2733 6.28935 93.3867 6.48935 92.24C6.68935 91.0933 6.88268 89.48 7.06935 87.4L7.28935 85.16H13.9093L13.8293 93.96L13.8693 96.3H15.5893ZM11.9293 94.14L11.8493 86.74H8.96935L8.86935 87.76C8.64268 90.32 8.35601 92.24 8.00935 93.52C7.66268 94.7867 7.16935 95.7133 6.52935 96.3H11.8693L11.9293 94.14Z" fill="#888888"/>
<path d="M18.2334 88.78H20.2534L20.6934 90.16L22.3134 94.7H22.4534L24.2134 90.16L24.6734 88.78H26.6534L27.5134 98H25.8934L25.7334 95.12L25.3934 91.44H25.2534L22.9934 97.02H21.5934L19.5134 91.44H19.3934L19.0134 94.86L18.7734 98H17.2334L18.2334 88.78Z" fill="#888888"/>
<path d="M30.0586 94.14L29.9786 88.82L31.9586 88.74L31.9186 95.18H32.0386L35.7386 88.78H37.7386L37.6586 93.9L37.7386 98H35.7586L35.8186 94.28L35.8386 91.48H35.6986L31.9386 98H29.9786L30.0586 94.14Z" fill="#888888"/>
<path d="M46.565 88.92L46.445 90.24L44.685 90.2H43.765L43.705 93.96L43.765 98H41.785L41.845 94.14L41.805 90.2H40.865L39.085 90.24L38.985 90.1L39.085 88.78H46.445L46.565 88.92Z" fill="#888888"/>
<path d="M52.4659 88.68C53.6126 88.68 54.4926 89.0667 55.1059 89.84C55.7326 90.6 56.0459 91.6933 56.0459 93.12C56.0459 94.7333 55.6526 95.98 54.8659 96.86C54.0792 97.74 52.9592 98.18 51.5059 98.18C51.0392 98.18 50.5192 98.1267 49.9459 98.02L50.0059 101.7H47.9859L48.1259 94.14L47.9859 88.92L49.9459 88.74L49.9259 90.06H50.0659C50.4926 89.6867 50.8859 89.4 51.2459 89.2C51.6059 89 52.0126 88.8267 52.4659 88.68ZM51.6659 96.78C52.4659 96.78 53.0792 96.4933 53.5059 95.92C53.9326 95.3467 54.1459 94.5267 54.1459 93.46C54.1459 92.4467 53.9726 91.6733 53.6259 91.14C53.2792 90.5933 52.7792 90.32 52.1259 90.32C51.7659 90.32 51.4059 90.42 51.0459 90.62C50.6992 90.8067 50.3192 91.1067 49.9059 91.52L49.8859 93.96L49.9259 96.34C50.5526 96.6333 51.1326 96.78 51.6659 96.78Z" fill="#888888"/>
<path d="M58.1836 94.14L58.1036 88.82L60.0836 88.74L60.0436 95.18H60.1636L63.8636 88.78H65.8636L65.7836 93.9L65.8636 98H63.8836L63.9436 94.28L63.9636 91.48H63.8236L60.0636 98H58.1036L58.1836 94.14Z" fill="#888888"/>
<path d="M68.789 94.14L68.709 88.82L70.689 88.74L70.649 95.18H70.769L74.469 88.78H76.469L76.389 93.9L76.469 98H74.489L74.549 94.28L74.569 91.48H74.429L70.669 98H68.709L68.789 94.14ZM75.629 85.54C75.389 86.1133 74.9957 86.56 74.449 86.88C73.9157 87.2 73.289 87.36 72.569 87.36C71.849 87.36 71.229 87.2067 70.709 86.9C70.2024 86.58 69.8157 86.1267 69.549 85.54L70.589 84.82H70.829C70.9624 85.2733 71.169 85.6067 71.449 85.82C71.7424 86.02 72.129 86.12 72.609 86.12C73.089 86.12 73.4624 86.0267 73.729 85.84C73.9957 85.64 74.209 85.3 74.369 84.82H74.589L75.629 85.54Z" fill="#888888"/>
<path d="M14.4401 103.02C15.7468 103.02 16.9001 103.313 17.9001 103.9L17.5201 105.72L17.3201 105.78C16.4268 105.087 15.4401 104.74 14.3601 104.74C13.1868 104.74 12.2868 105.14 11.6601 105.94C11.0468 106.727 10.7401 107.907 10.7401 109.48C10.7401 111.093 11.0535 112.32 11.6801 113.16C12.3068 114 13.2001 114.42 14.3601 114.42C14.9201 114.42 15.4735 114.327 16.0201 114.14C16.5801 113.94 17.0935 113.667 17.5601 113.32L17.7601 113.44L17.6001 115.32C16.4535 115.88 15.3201 116.16 14.2001 116.16C12.4001 116.16 11.0135 115.6 10.0401 114.48C9.06679 113.36 8.58013 111.767 8.58013 109.7C8.58013 107.567 9.08679 105.92 10.1001 104.76C11.1268 103.6 12.5735 103.02 14.4401 103.02Z" fill="#888888"/>
<path d="M25.9204 106.92L25.8004 108.24L24.0404 108.2H23.1204L23.0604 111.96L23.1204 116H21.1404L21.2004 112.14L21.1604 108.2H20.2204L18.4404 108.24L18.3404 108.1L18.4404 106.78H25.8004L25.9204 106.92Z" fill="#888888"/>
<path d="M30.5614 106.6C31.4814 106.6 32.208 106.82 32.7414 107.26C33.2747 107.7 33.5414 108.313 33.5414 109.1C33.5414 109.34 33.5014 110.14 33.4214 111.5C33.3414 112.833 33.3014 113.613 33.3014 113.84C33.3014 114.093 33.3414 114.273 33.4214 114.38C33.5147 114.473 33.668 114.52 33.8814 114.52C34.0147 114.52 34.2147 114.493 34.4814 114.44L34.6614 114.58L34.4614 115.7C34.0747 115.94 33.6547 116.087 33.2014 116.14C32.788 116.1 32.4547 115.953 32.2014 115.7C31.948 115.433 31.7947 115.087 31.7414 114.66H31.6014C30.9214 115.38 30.228 115.88 29.5214 116.16C28.6014 116.147 27.8747 115.907 27.3414 115.44C26.8214 114.973 26.5614 114.34 26.5614 113.54C26.5614 112.353 27.208 111.613 28.5014 111.32L31.6614 110.62L31.6814 109.54C31.6814 109.047 31.5547 108.673 31.3014 108.42C31.0614 108.167 30.708 108.04 30.2414 108.04C29.788 108.04 29.3347 108.147 28.8814 108.36C28.428 108.56 27.928 108.88 27.3814 109.32L27.2214 109.22L26.9614 107.8C28.1347 107 29.3347 106.6 30.5614 106.6ZM29.0614 112.42C28.8214 112.473 28.648 112.567 28.5414 112.7C28.4347 112.82 28.3814 113.013 28.3814 113.28C28.3814 113.68 28.488 113.993 28.7014 114.22C28.928 114.447 29.228 114.56 29.6014 114.56C30.228 114.56 30.8947 114.153 31.6014 113.34L31.6614 111.8L29.0614 112.42Z" fill="#888888"/>
<path d="M41.0987 106.68C42.2454 106.68 43.1254 107.067 43.7387 107.84C44.3654 108.6 44.6787 109.693 44.6787 111.12C44.6787 112.733 44.2854 113.98 43.4987 114.86C42.7121 115.74 41.5921 116.18 40.1387 116.18C39.6721 116.18 39.1521 116.127 38.5787 116.02L38.6387 119.7H36.6187L36.7587 112.14L36.6187 106.92L38.5787 106.74L38.5587 108.06H38.6987C39.1254 107.687 39.5187 107.4 39.8787 107.2C40.2387 107 40.6454 106.827 41.0987 106.68ZM40.2987 114.78C41.0987 114.78 41.7121 114.493 42.1387 113.92C42.5654 113.347 42.7787 112.527 42.7787 111.46C42.7787 110.447 42.6054 109.673 42.2587 109.14C41.9121 108.593 41.4121 108.32 40.7587 108.32C40.3987 108.32 40.0387 108.42 39.6787 108.62C39.3321 108.807 38.9521 109.107 38.5387 109.52L38.5187 111.96L38.5587 114.34C39.1854 114.633 39.7654 114.78 40.2987 114.78Z" fill="#888888"/>
<path d="M46.7964 112.14L46.7364 106.92L48.7364 106.74L48.6564 111.96L48.7164 116H46.7164L46.7964 112.14ZM50.8764 110.98C51.9964 112.527 53.2097 114.08 54.5164 115.64L54.4964 115.88C54.1497 115.973 53.7764 116.04 53.3764 116.08C52.9764 116.133 52.7364 116.167 52.6564 116.18L52.4564 116.1C51.003 114.26 49.823 112.613 48.9164 111.16V111.02L51.6164 107.66L52.1164 106.78H54.2564L50.8764 110.98Z" fill="#888888"/>
<path d="M59.3965 106.6C60.6899 106.6 61.6832 107.007 62.3765 107.82C63.0832 108.62 63.4365 109.76 63.4365 111.24C63.4365 112.827 63.0632 114.047 62.3165 114.9C61.5699 115.753 60.5099 116.18 59.1365 116.18C57.8432 116.18 56.8432 115.78 56.1365 114.98C55.4432 114.167 55.0965 113.02 55.0965 111.54C55.0965 109.953 55.4699 108.733 56.2165 107.88C56.9632 107.027 58.0232 106.6 59.3965 106.6ZM59.2765 108.02C57.7565 108.02 56.9965 109.047 56.9965 111.1C56.9965 112.353 57.1832 113.28 57.5565 113.88C57.9299 114.48 58.5032 114.78 59.2765 114.78C60.0365 114.78 60.6032 114.527 60.9765 114.02C61.3499 113.513 61.5365 112.74 61.5365 111.7C61.5365 110.447 61.3499 109.52 60.9765 108.92C60.6032 108.32 60.0365 108.02 59.2765 108.02Z" fill="#888888"/>
<path d="M70.7468 111.22C72.0535 111.513 72.7068 112.233 72.7068 113.38C72.7068 114.3 72.3402 114.98 71.6068 115.42C70.8868 115.847 69.8135 116.06 68.3868 116.06C67.4668 116.06 66.4935 116.04 65.4668 116L65.5468 112.14L65.4868 106.78L69.0668 106.76C70.1068 106.76 70.9068 106.96 71.4668 107.36C72.0268 107.747 72.3068 108.307 72.3068 109.04C72.3068 109.52 72.1735 109.947 71.9068 110.32C71.6402 110.693 71.2535 110.993 70.7468 111.22ZM70.4468 109.28C70.4468 108.853 70.2802 108.533 69.9468 108.32C69.6135 108.107 69.1002 108 68.4068 108C67.9668 108 67.6268 108.007 67.3868 108.02L67.3268 110.72L69.0468 110.78C69.5002 110.687 69.8468 110.513 70.0868 110.26C70.3268 110.007 70.4468 109.68 70.4468 109.28ZM68.6068 114.86C69.3268 114.86 69.8802 114.727 70.2668 114.46C70.6535 114.193 70.8468 113.807 70.8468 113.3C70.8468 112.54 70.3268 112.093 69.2868 111.96L67.3069 111.98L67.3468 114.8C67.7735 114.84 68.1935 114.86 68.6068 114.86Z" fill="#888888"/>
<path d="M23.5304 131H22.7704L22.7104 130.38L22.5004 129.23L21.1404 129.21L19.9104 129.23L19.3904 130.34L19.1404 131H18.3904L21.4304 124.6H22.2904L23.5304 131ZM22.3804 128.59L21.7804 125.38H21.7104L20.2104 128.59L21.2704 128.6L22.3804 128.59Z" fill="#888888"/>
<path d="M27.2575 126.56L27.3175 126.67L27.1175 127.26L26.9575 127.29C26.8308 127.157 26.7142 127.067 26.6075 127.02C26.5075 126.967 26.4008 126.94 26.2875 126.94C25.8875 126.94 25.5708 127.15 25.3375 127.57C25.1042 127.99 24.9875 128.563 24.9875 129.29C24.9875 129.703 25.0342 130 25.1275 130.18C25.2208 130.353 25.3675 130.44 25.5675 130.44C25.9208 130.44 26.2675 130.14 26.6075 129.54L26.7175 129.55L26.9475 129.87C26.7408 130.223 26.5242 130.49 26.2975 130.67C26.0775 130.85 25.8175 130.983 25.5175 131.07H25.3975C25.0108 131.003 24.7275 130.853 24.5475 130.62C24.3742 130.38 24.2875 129.98 24.2875 129.42C24.2875 128.527 24.4808 127.793 24.8675 127.22C25.2608 126.647 25.8442 126.36 26.6175 126.36L27.2575 126.56Z" fill="#888888"/>
<path d="M33.2055 126.35C33.4388 126.403 33.6255 126.507 33.7655 126.66C33.9121 126.807 33.9821 126.993 33.9755 127.22L33.9655 127.35L33.5555 129.92L33.4955 130.97L32.7255 131.04L33.2655 127.62L33.2755 127.49C33.2821 127.397 33.2655 127.323 33.2255 127.27C33.1921 127.21 33.1421 127.18 33.0755 127.18C32.8821 127.18 32.6055 127.43 32.2455 127.93C31.8855 128.43 31.4855 129.14 31.0455 130.06L30.9955 130.97L30.2255 131.04L30.7755 127.62L30.7855 127.49C30.7855 127.283 30.7155 127.18 30.5755 127.18C30.3821 127.18 30.1088 127.423 29.7555 127.91C29.4088 128.397 29.0188 129.09 28.5855 129.99L28.5355 130.97L27.7755 131.04L28.2955 127.41L28.3455 126.44L29.0855 126.37L28.7655 128.62H28.8555C29.1955 128.04 29.4988 127.573 29.7655 127.22C30.0321 126.86 30.3088 126.57 30.5955 126.35H30.7055C30.9388 126.403 31.1255 126.507 31.2655 126.66C31.4121 126.807 31.4821 126.993 31.4755 127.22L31.4655 127.35L31.2655 128.62H31.3555C31.6821 128.047 31.9821 127.583 32.2555 127.23C32.5288 126.87 32.8088 126.577 33.0955 126.35H33.2055Z" fill="#888888"/>
<path d="M37.6962 126.35C38.2029 126.657 38.4562 127.18 38.4562 127.92C38.4562 128.407 38.3662 128.877 38.1862 129.33C38.0062 129.777 37.7362 130.16 37.3762 130.48C37.0229 130.8 36.5962 130.997 36.0962 131.07H36.0562L35.5162 130.95L35.4062 131.76L35.3562 132.85L34.5962 132.92L35.3662 127.41L35.4162 126.44L36.1462 126.37L35.8662 128.43H35.9762C36.4629 127.577 36.9896 126.883 37.5562 126.35H37.6962ZM36.2462 130.47C36.5596 130.47 36.8296 130.363 37.0562 130.15C37.2896 129.937 37.4662 129.653 37.5862 129.3C37.7129 128.94 37.7762 128.543 37.7762 128.11C37.7762 127.777 37.7462 127.54 37.6862 127.4C37.6262 127.253 37.5562 127.18 37.4762 127.18C37.3962 127.18 37.2562 127.29 37.0562 127.51C36.8629 127.73 36.6396 128.05 36.3862 128.47C36.1396 128.89 35.8962 129.383 35.6562 129.95L35.6062 130.29L36.2462 130.47Z" fill="#888888"/>
<path d="M41.3524 126.34C41.7191 126.4 41.9924 126.553 42.1724 126.8C42.3591 127.047 42.4524 127.4 42.4524 127.86C42.4524 128.473 42.3657 129.017 42.1924 129.49C42.0191 129.963 41.7657 130.34 41.4324 130.62C41.1057 130.893 40.7157 131.05 40.2624 131.09L40.1724 131.08C39.7924 131.007 39.5091 130.847 39.3224 130.6C39.1424 130.353 39.0524 129.99 39.0524 129.51C39.0524 128.91 39.1424 128.377 39.3224 127.91C39.5024 127.437 39.7591 127.063 40.0924 126.79C40.4324 126.517 40.8257 126.367 41.2724 126.34H41.3524ZM41.1424 126.95C40.6891 126.95 40.3424 127.18 40.1024 127.64C39.8624 128.1 39.7424 128.72 39.7424 129.5C39.7424 129.847 39.7891 130.1 39.8824 130.26C39.9757 130.413 40.1324 130.49 40.3524 130.49C40.7991 130.49 41.1424 130.257 41.3824 129.79C41.6224 129.323 41.7424 128.697 41.7424 127.91C41.7424 127.57 41.6957 127.327 41.6024 127.18C41.5091 127.027 41.3557 126.95 41.1424 126.95Z" fill="#888888"/>
<path d="M46.1005 130.97L45.4005 131.04L45.3705 130.25L45.0905 127.18H44.9605L43.9105 129.77C43.7772 130.11 43.6439 130.373 43.5105 130.56C43.3839 130.747 43.2405 130.88 43.0805 130.96C42.9205 131.033 42.7172 131.073 42.4705 131.08L42.4005 130.56L42.4505 130.48C42.6639 130.427 42.8372 130.323 42.9705 130.17C43.1039 130.017 43.2572 129.74 43.4305 129.34L44.7005 126.42H45.5805L46.1005 130.97Z" fill="#888888"/>
<path d="M49.1161 126.34C49.4828 126.4 49.7561 126.553 49.9361 126.8C50.1228 127.047 50.2161 127.4 50.2161 127.86C50.2161 128.473 50.1294 129.017 49.9561 129.49C49.7828 129.963 49.5294 130.34 49.1961 130.62C48.8694 130.893 48.4794 131.05 48.0261 131.09L47.9361 131.08C47.5561 131.007 47.2728 130.847 47.0861 130.6C46.9061 130.353 46.8161 129.99 46.8161 129.51C46.8161 128.91 46.9061 128.377 47.0861 127.91C47.2661 127.437 47.5228 127.063 47.8561 126.79C48.1961 126.517 48.5894 126.367 49.0361 126.34H49.1161ZM48.9061 126.95C48.4528 126.95 48.1061 127.18 47.8661 127.64C47.6261 128.1 47.5061 128.72 47.5061 129.5C47.5061 129.847 47.5528 130.1 47.6461 130.26C47.7394 130.413 47.8961 130.49 48.1161 130.49C48.5628 130.49 48.9061 130.257 49.1461 129.79C49.3861 129.323 49.5061 128.697 49.5061 127.91C49.5061 127.57 49.4594 127.327 49.3661 127.18C49.2728 127.027 49.1194 126.95 48.9061 126.95Z" fill="#888888"/>
<path d="M52.0091 131.08C51.6091 131.067 51.2924 130.97 51.0591 130.79C50.8324 130.603 50.7191 130.357 50.7191 130.05C50.7191 129.83 50.7791 129.627 50.8991 129.44C51.0191 129.253 51.1624 129.093 51.3291 128.96C51.4957 128.82 51.7157 128.657 51.9891 128.47C52.2957 128.263 52.5224 128.09 52.6691 127.95C52.8224 127.81 52.8991 127.66 52.8991 127.5C52.8991 127.347 52.8491 127.227 52.7491 127.14C52.6491 127.053 52.5157 127.01 52.3491 127.01C52.1957 127.01 52.0424 127.053 51.889 127.14C51.7424 127.22 51.5657 127.353 51.3591 127.54H51.229L51.0391 127.15C51.3857 126.723 51.8257 126.453 52.3591 126.34C52.7324 126.34 53.0324 126.437 53.2591 126.63C53.4924 126.817 53.6091 127.06 53.6091 127.36C53.6091 127.673 53.5024 127.94 53.2891 128.16C53.0757 128.38 52.7691 128.623 52.3691 128.89C52.0491 129.11 51.8124 129.293 51.659 129.44C51.5057 129.58 51.4291 129.74 51.4291 129.92C51.4291 130.067 51.4824 130.187 51.5891 130.28C51.6957 130.373 51.8391 130.42 52.0191 130.42C52.3524 130.42 52.7091 130.19 53.0891 129.73L53.2091 129.76L53.4191 130.14C53.0791 130.627 52.6091 130.94 52.0091 131.08Z" fill="#888888"/>
<path d="M57.9794 126.37L57.4794 129.91L57.4394 130.97L56.6794 131.04L56.9894 128.8H56.9194C56.5927 129.36 56.2927 129.817 56.0194 130.17C55.7527 130.523 55.4727 130.813 55.1794 131.04H55.0694C54.836 130.987 54.646 130.887 54.4994 130.74C54.3594 130.593 54.2927 130.407 54.2994 130.18L54.3094 130.05L54.7194 127.47L54.7994 126.42L55.5394 126.36L55.0094 129.71L54.9894 129.92C54.9827 130.02 54.9994 130.097 55.0394 130.15C55.0794 130.197 55.1327 130.22 55.1994 130.22C55.3927 130.22 55.666 129.977 56.0194 129.49C56.3727 129.003 56.7627 128.31 57.1894 127.41L57.2394 126.44L57.9794 126.37Z" fill="#888888"/>
<path d="M62.1501 126.4L61.6901 129.91L61.6201 130.97L60.9001 131.04L61.4401 126.96L60.8001 126.87C60.5601 126.87 60.3401 126.933 60.1401 127.06C59.9401 127.187 59.7801 127.36 59.6601 127.58C59.5468 127.8 59.4901 128.043 59.4901 128.31C59.4901 128.523 59.5268 128.683 59.6001 128.79C59.6735 128.89 59.7768 128.94 59.9101 128.94C60.1101 128.94 60.3668 128.83 60.6801 128.61L60.7501 128.64L60.8301 128.91C60.3101 129.663 59.7735 130.367 59.2201 131.02L59.1401 131.06C58.9601 131.053 58.7635 131.007 58.5501 130.92L58.5301 130.84C58.9035 130.467 59.3635 129.97 59.9101 129.35C59.8168 129.363 59.7468 129.37 59.7001 129.37C59.4401 129.37 59.2368 129.283 59.0901 129.11C58.9435 128.937 58.8701 128.69 58.8701 128.37C58.8701 128.03 58.9535 127.713 59.1201 127.42C59.2935 127.127 59.5301 126.887 59.8301 126.7C60.1301 126.513 60.4735 126.397 60.8601 126.35L61.7101 126.44L62.0901 126.36L62.1501 126.4Z" fill="#888888"/>
<path fill-rule="evenodd" clip-rule="evenodd" d="M61.4468 63.953C56.0889 68.9455 48.9012 72 41 72C36.8343 72 32.867 71.151 29.2615 69.6165C28.3817 71.0465 26.8022 72 25 72C22.2386 72 20 69.7614 20 67C20 65.9712 20.3107 65.0149 20.8435 64.22C18.0371 61.6727 15.7153 58.6011 14.0329 55.1598C14.7362 55.2383 15.4397 55.3456 16.1433 55.4818C19.7133 56.1727 23.2867 56.1727 26.8567 55.4818C30.1756 54.8394 33.4911 54.8394 36.81 55.4818L37.19 53.5182C33.6201 52.8273 30.0466 52.8273 26.4766 53.5182C23.1577 54.1606 19.8423 54.1606 16.5234 53.5182C15.3851 53.2979 14.2465 53.1479 13.1077 53.068C12.3505 51.1614 11.7831 49.1588 11.4289 47.0835C13.7781 46.8941 16.1265 47.0269 18.4766 47.4818C18.9369 47.5709 19.3973 47.6485 19.8579 47.7146L20.1421 45.7349C19.7139 45.6734 19.2854 45.6012 18.8567 45.5182C16.2914 45.0217 13.7244 44.882 11.1581 45.099C11.0536 44.0803 11 43.0464 11 42C11 40.9875 11.0502 39.9867 11.1481 39C12.8129 38.9988 14.4777 39.1594 16.1433 39.4818C19.7133 40.1727 23.2867 40.1727 26.8567 39.4818C30.1756 38.8394 33.4911 38.8394 36.81 39.4818L37.19 37.5182C33.6201 36.8273 30.0466 36.8273 26.4766 37.5182C23.1577 38.1606 19.8423 38.1606 16.5234 37.5182C14.821 37.1887 13.1178 37.0164 11.4146 37.0011C11.7636 34.9204 12.3268 32.9122 13.0807 31.0001C14.768 30.9945 16.4552 31.1551 18.1433 31.4818C21.7133 32.1727 25.2867 32.1727 28.8567 31.4818C32.1756 30.8394 35.4911 30.8394 38.81 31.4818L39.19 29.5182C35.6201 28.8273 32.0466 28.8273 28.4766 29.5182C25.1577 30.1606 21.8423 30.1606 18.5234 29.5182C16.9994 29.2233 15.4747 29.0542 13.95 29.0111C14.9073 27.021 16.0778 25.1528 17.4319 23.4361C20.67 22.8398 23.905 22.855 27.1433 23.4818C30.7133 24.1727 34.2867 24.1727 37.8567 23.4818C41.1756 22.8394 44.4911 22.8394 47.81 23.4818L48.19 21.5182C44.6201 20.8273 41.0466 20.8273 37.4766 21.5182C34.1577 22.1606 30.8423 22.1606 27.5234 21.5182C24.8317 20.9973 22.1381 20.8691 19.4454 21.1337C24.8991 15.5013 32.5407 12 41 12C46.4871 12 51.6301 13.4731 56.0551 16.0454C57.3215 14.7815 59.0695 14 61 14C64.866 14 68 17.134 68 21C68 22.8083 67.3143 24.4564 66.1888 25.6986C68.5174 29.2893 70.0991 33.4093 70.7137 37.8386C68.0946 38.1321 65.4767 38.0253 62.8567 37.5182C59.2867 36.8273 55.7133 36.8273 52.1433 37.5182C48.8244 38.1606 45.5089 38.1606 42.19 37.5182L41.81 39.4818C45.3799 40.1727 48.9534 40.1727 52.5234 39.4818C55.8423 38.8394 59.1577 38.8394 62.4766 39.4818C65.2909 40.0265 68.1074 40.1418 70.9226 39.8277C70.9739 40.5451 71 41.2695 71 42C71 43.0237 70.9487 44.0355 70.8486 45.0328C68.6133 44.924 66.3776 45.0858 64.1433 45.5182C60.8244 46.1606 57.5089 46.1606 54.19 45.5182L53.81 47.4818C57.3799 48.1727 60.9534 48.1727 64.5234 47.4818C66.5435 47.0908 68.5623 46.9378 70.5814 47.0228C70.1709 49.4577 69.4671 51.7931 68.5076 53.9912C66.6242 54.0406 64.741 53.8829 62.8567 53.5182C59.2867 52.8273 55.7133 52.8273 52.1433 53.5182C48.8244 54.1606 45.5089 54.1606 42.19 53.5182L41.81 55.4818C45.3799 56.1727 48.9534 56.1727 52.5234 55.4818C55.8423 54.8394 59.1577 54.8394 62.4766 55.4818C64.1641 55.8084 65.8523 55.9806 67.5406 55.9985C66.4507 58.0608 65.1273 59.9807 63.6059 61.7231C60.689 62.1512 57.7742 62.0829 54.8567 61.5182C51.2867 60.8273 47.7133 60.8273 44.1433 61.5182C40.8244 62.1606 37.5089 62.1606 34.19 61.5182L33.81 63.4818C37.3799 64.1727 40.9534 64.1727 44.5234 63.4818C47.8423 62.8394 51.1577 62.8394 54.4766 63.4818C56.7992 63.9313 59.1232 64.0884 61.4468 63.953ZM65.0013 23.9988C65.6284 23.1633 66 22.1251 66 21C66 18.2386 63.7614 16 61 16C59.7878 16 58.6764 16.4314 57.8108 17.149C56.7046 18.0661 56 19.4508 56 21C56 23.7614 58.2386 26 61 26C62.6364 26 64.0891 25.2139 65.0013 23.9988ZM28 67C28 67.6583 27.7879 68.2672 27.4284 68.7619C26.8831 69.5122 25.9985 70 25 70C23.3431 70 22 68.6569 22 67C22 66.4651 22.14 65.9629 22.3853 65.528C22.9 64.6159 23.8781 64 25 64C26.6569 64 28 65.3431 28 67ZM46.4766 47.4818C43.1577 46.8394 39.8423 46.8394 36.5234 47.4818C32.9534 48.1727 29.3799 48.1727 25.81 47.4818L26.19 45.5182C29.5089 46.1606 32.8244 46.1606 36.1433 45.5182C39.7133 44.8273 43.2867 44.8273 46.8567 45.5182C47.2854 45.6012 47.7139 45.6734 48.1421 45.7349L47.8579 47.7146C47.3973 47.6485 46.9368 47.5709 46.4766 47.4818ZM44.81 31.4818C46.8815 31.8827 48.9557 32.0513 51.0312 31.9865L50.9688 29.9875C49.0443 30.0476 47.1185 29.8915 45.19 29.5182L44.81 31.4818Z" fill="#888888"/>
</svg>
